<svg class="icon" viewBox="0 0 1024 1024" xmlns="http://www.w3.org/2000/svg" width="26"
                            height="26">
                            <path
                                d="M910.6 243.3h-735c-27.4 0-49.6 22.3-49.6 49.6v495.3c0 27.4 22.3 49.6 49.6 49.6h507.1L802.6 907c14.5 8.4 32.6-2.1 32.6-18.9v-50.4h75.4c27.4 0 49.6-22.3 49.6-49.6V292.9c0-27.3-22.3-49.6-49.6-49.6z"
                                fill="#A7B8C6"></path>
                            <path
                                d="M870.8 187.7H118.9c-15.3 0-27.7 12.4-27.7 27.7v512.2c0 15.3 12.4 27.7 27.7 27.7h751.9c15.3 0 27.7-12.4 27.7-27.7V215.4c0-15.3-12.4-27.7-27.7-27.7z"
                                fill="#E2E3E5"></path>
                            <path
                                d="M870.8 160.6H118.9c-30.2 0-54.7 24.5-54.7 54.7v512.2c0 30.2 24.5 54.7 54.7 54.7h519.2c1.5 1.6 3.2 3.1 5.3 4.3L784.5 868c14.5 8.4 32.6-2.1 32.6-18.9v-66.9h53.6c30.2 0 54.7-24.5 54.7-54.7V215.4c0.1-30.2-24.4-54.8-54.6-54.8z m27.7 566.9c0 15.3-12.4 27.7-27.7 27.7H118.9c-15.3 0-27.7-12.4-27.7-27.7V215.4c0-15.3 12.4-27.7 27.7-27.7h751.9c15.3 0 27.7 12.4 27.7 27.7v512.1z"
                                fill="#1A1A1A"></path>
                            <path
                                d="M655.6 396H222.7c-9.3 0-17-7.6-17-17 0-9.3 7.6-17 17-17h432.9c9.3 0 17 7.6 17 17 0 9.3-7.7 17-17 17z m106.5 97.2H222.7c-9.3 0-17-7.6-17-17 0-9.3 7.6-17 17-17h539.4c9.3 0 17 7.6 17 17 0 9.3-7.7 17-17 17z m0 97.2H222.7c-9.3 0-17-7.6-17-17 0-9.3 7.6-17 17-17h539.4c9.3 0 17 7.6 17 17 0 9.3-7.7 17-17 17z"
                                fill="#B8B0B2"></path>
                            <path
                                d="M652 387H219.2c-9.3 0-17-7.6-17-17 0-9.3 7.6-17 17-17H652c9.3 0 17 7.6 17 17 0 9.3-7.6 17-17 17z m106.5 97.1H219.2c-9.3 0-17-7.6-17-17 0-9.3 7.6-17 17-17h539.4c9.3 0 17 7.6 17 17-0.1 9.4-7.7 17-17.1 17z m0 97.2H219.1c-9.3 0-17-7.6-17-17 0-9.3 7.6-17 17-17h539.4c9.3 0 17 7.6 17 17s-7.6 17-17 17z"
                                fill="#353334"></path>
                            <path
                                d="M615.406 735.5l132.375 76.406c13.594 7.875 30.563-1.968 30.563-17.718v-62.72H610.53c1.313 1.595 3 3 4.875 4.032z"
                                fill="#E2E3E5"></path>
                        </svg>