<svg class="icon" viewBox="0 0 1024 1024" xmlns="http://www.w3.org/2000/svg" width="26"
                            height="26">
                            <path
                                d="M910.3 842.3H173.6c-27.4 0-49.7-22.3-49.7-49.7V296.1c0-27.4 22.3-49.7 49.7-49.7h736.7c27.4 0 49.7 22.3 49.7 49.7v496.4c0 27.5-22.3 49.8-49.7 49.8z"
                                fill="#A7B8C6"></path>
                            <path
                                d="M272.4 195.3H118.8c-22.8 0-41.3 18.5-41.3 41.3v513.3c0 22.8 18.5 41.3 41.3 41.3h753.5c22.8 0 41.3-18.5 41.3-41.3V236.6c0-22.8-18.5-41.3-41.3-41.3H272.4z"
                                fill="#FFFFFF"></path>
                            <path
                                d="M914.2 430.2H846c-1.3 0-2.4-1.1-2.4-2.4v-43c0-1.3 1.1-2.4 2.4-2.4h68.2c1.3 0 2.4 1.1 2.4 2.4v43c0 1.4-1.1 2.4-2.4 2.4z"
                                fill="#E74138"></path>
                            <path
                                d="M914.2 505.6H846c-1.3 0-2.4-1.1-2.4-2.4v-43c0-1.3 1.1-2.4 2.4-2.4h68.2c1.3 0 2.4 1.1 2.4 2.4v43c0 1.3-1.1 2.4-2.4 2.4z"
                                fill="#3474B9"></path>
                            <path
                                d="M914.2 581H846c-1.3 0-2.4-1.1-2.4-2.4v-43c0-1.3 1.1-2.4 2.4-2.4h68.2c1.3 0 2.4 1.1 2.4 2.4v43c0 1.3-1.1 2.4-2.4 2.4z m-761-150.8H85c-1.3 0-2.4-1.1-2.4-2.4v-43c0-1.3 1.1-2.4 2.4-2.4h68.2c1.3 0 2.4 1.1 2.4 2.4v43c-0.1 1.4-1.1 2.4-2.4 2.4z"
                                fill="#E74138"></path>
                            <path
                                d="M153.2 505.6H85c-1.3 0-2.4-1.1-2.4-2.4v-43c0-1.3 1.1-2.4 2.4-2.4h68.2c1.3 0 2.4 1.1 2.4 2.4v43c-0.1 1.3-1.1 2.4-2.4 2.4z"
                                fill="#3474B9"></path>
                            <path
                                d="M153.2 581H85c-1.3 0-2.4-1.1-2.4-2.4v-43c0-1.3 1.1-2.4 2.4-2.4h68.2c1.3 0 2.4 1.1 2.4 2.4v43c-0.1 1.3-1.1 2.4-2.4 2.4z"
                                fill="#E74138"></path>
                            <path
                                d="M873.5 223.9c12.5-8.9 6.2-28.7-9.2-28.7H126.9c-15.4 0-21.7 19.7-9.2 28.7l332.1 236.7c27.4 19.5 64.1 19.5 91.4 0l332.3-236.7z"
                                fill="#FFFFFF"></path>
                            <path
                                d="M495.6 485.8c-18.7 0-36.6-5.7-51.8-16.6L111.7 232.5c-9.5-6.8-13.4-18.4-9.8-29.5 3.6-11.1 13.4-18.3 25.1-18.3h737.4c11.7 0 21.5 7.2 25.1 18.3 3.6 11.1-0.3 22.7-9.8 29.5L547.4 469.2c-15.2 10.9-33.1 16.6-51.8 16.6z m-368.7-280c-3.5 0-4.6 2.6-5 3.6-0.4 1.1-0.9 3.9 2 5.9L456 452.1c11.6 8.3 25.3 12.7 39.6 12.7s28-4.4 39.6-12.7l332.1-236.7c2.8-2 2.3-4.8 2-5.9-0.4-1.1-1.5-3.6-5-3.6H126.9z"
                                fill="#3E3A39"></path>
                            <path
                                d="M872.4 804.7H118.8c-30.2 0-54.8-24.6-54.8-54.8V236.6c0-30.2 24.6-54.8 54.8-54.8h753.5c30.2 0 54.8 24.6 54.8 54.8v513.3c0.1 30.2-24.5 54.8-54.7 54.8zM118.8 208.8c-15.3 0-27.7 12.4-27.7 27.7v513.3c0 15.3 12.4 27.7 27.7 27.7h753.5c15.3 0 27.7-12.4 27.7-27.7V236.6c0-15.3-12.4-27.7-27.7-27.7H118.8z"
                                fill="#3E3A39"></path>
                            <path d="M424.9 474.3a71.2 71.2 0 1 0 142.4 0 71.2 71.2 0 1 0-142.4 0z" fill="#FFFFFF">
                            </path>
                            <path
                                d="M496.1 556c-45.1 0-81.7-36.7-81.7-81.7s36.7-81.7 81.7-81.7 81.7 36.7 81.7 81.7-36.7 81.7-81.7 81.7z m0-142.4c-33.4 0-60.6 27.2-60.6 60.6 0 33.4 27.2 60.6 60.6 60.6s60.6-27.2 60.6-60.6c0-33.4-27.2-60.6-60.6-60.6z"
                                fill="#3E3A39"></path>
                            <path d="M456.9 474.3a39.2 39.2 0 1 0 78.4 0 39.2 39.2 0 1 0-78.4 0z" fill="#E74138"></path>
                            <path
                                d="M496.1 524c-27.4 0-49.7-22.3-49.7-49.7s22.3-49.7 49.7-49.7 49.7 22.3 49.7 49.7-22.3 49.7-49.7 49.7z m0-78.3c-15.8 0-28.6 12.8-28.6 28.6s12.8 28.6 28.6 28.6 28.6-12.8 28.6-28.6-12.9-28.6-28.6-28.6z"
                                fill="#336EAD"></path>
                            <path
                                d="M666.7 685h-490c-2 0-3.6-1.6-3.6-3.6v-14.6c0-2 1.6-3.6 3.6-3.6h490c2 0 3.6 1.6 3.6 3.6v14.6c0 2-1.6 3.6-3.6 3.6z m-155.2 40.7H176.8c-2 0-3.6-1.6-3.6-3.6v-14.6c0-2 1.6-3.6 3.6-3.6h334.8c2 0 3.6 1.6 3.6 3.6v14.6c0 2-1.7 3.6-3.7 3.6z m305.9-87.1H176.8c-2 0-3.6-1.6-3.6-3.6v-14.6c0-2 1.6-3.6 3.6-3.6h640.6c2 0 3.6 1.6 3.6 3.6V635c0 2-1.6 3.6-3.6 3.6z"
                                fill="#C9E6E6"></path>
                        </svg>